:SAMPLES-PER-SECOND 30
:FULLY-SPECIFIED
:DEGREES
244
root  34.78209428 36.5220558 -14.51516339 9.766497612 -4.592001438 4.804481983
lowerback  -7.894309998 -0.1890220046 -0.9653814435
upperback  -4.036129951 0.4294080138 -5.000879765
thorax  0.2828449905 0.4218499959 -4.604380131
lowerneck  -5.020679951 -15.71490002 -10.08360004
upperneck  9.118160248 -21.48879814 11.21440029
head  5.870500088 -10.2201004 3.238140106
lclavicle  0 -4.497500157e-015 -2.743230041e-014
lhumerus  -47.7358017 30.20009995 60.56850052
lradius  0.01541789994 -6.507048965e-006 28.97890091
lwrist  4.824992743e-007 -3.790274832e-007 -31.00489998
lhand  -4.408620093e-031 -36.77819824 -10.44270039
lfingers  90 7.125020027 -90
lthumb  94.71023339 -25.28705114 100.9178446
rclavicle  0 -4.497500157e-015 -2.743230041e-014
rhumerus  20.99510002 -44.90619659 -25.86359978
rradius  -5.16745672e-007 2.214343908e-008 53.28739929
rwrist  -2.867388866e-005 0.02309862897 -170.0200043
rhand  -1.769276438e-031 3.713059902 -6.609200001
rfingers  -90 -7.125020027 -90
rthumb  -84.76703309 -9.290375165 -60.4328168
rfemur  -13.0207243 14.72209454 11.77440071
rtibia  -1.598318934 -2.098075151 20.88115501
rfoot  0.3821634352 -22.71887398 -35.01548767
rtoes  3.814760155 19.64746023 -101.2168874
lfemur  -6.685687542 -17.80194664 -22.73217201
ltibia  5.173560143 -1.359635234 11.21520519
lfoot  1.299933314 -21.35421944 37.44770432
ltoes  -8.636013038 -18.10864396 -116.0419498
245
root  34.78013286 36.52220298 -14.51701667 9.758917809 -4.633347988 4.790838242
lowerback  -7.884940147 -0.1959879696 -0.9663798213
upperback  -4.03098011 0.4195460081 -5.004720211
thorax  0.2822839916 0.4166939855 -4.608640194
lowerneck  -5.057250023 -15.6850996 -10.05300045
upperneck  9.139730453 -21.44949913 11.21809959
head  5.876349926 -10.19740009 3.237050056
lclavicle  0 -4.497500157e-015 -2.743230041e-014
lhumerus  -47.74300003 30.20700073 60.55609894
lradius  0.01744836941 -6.507048965e-006 28.96489906
lwrist  4.824992743e-007 -3.790274832e-007 -30.99710083
lhand  -4.411482276e-031 -36.82789993 -10.42749977
lfingers  90 7.125020027 -90
lthumb  94.73009732 -25.27043971 100.9695475
rclavicle  0 -4.497500157e-015 -2.743230041e-014
rhumerus  20.07209778 -44.79899979 -25.58489799
rradius  -5.16745672e-007 2.214343908e-008 54.38090134
rwrist  -2.867388866e-005 0.02262325585 -170.3399963
rhand  -1.7689683e-031 3.555949926 -6.662799835
rfingers  -90 -7.125020027 -90
rthumb  -84.83104712 -9.23476954 -60.59055663
rfemur  -13.02846527 14.75558662 11.78765297
rtibia  -1.595278502 -2.081569672 20.88809776
rfoot  0.3886748254 -22.69876862 -35.00031662
rtoes  3.781161443 19.65370653 -101.1169754
lfemur  -6.733879089 -17.75026512 -22.69486618
ltibia  5.135238171 -1.35177958 11.289258
lfoot  1.302752495 -21.39701653 37.44290543
ltoes  -8.623854512 -18.11428585 -116.002838
246
root  34.77629414 36.52182151 -14.51857109 9.740564346 -4.67143631 4.767334461
lowerback  -7.918649673 -0.2474489063 -1.077899933
upperback  -4.007359982 0.3557719886 -4.94822979
thorax  0.3204010129 0.3851859868 -4.490809917
lowerneck  -5.163869858 -15.62959957 -10.02670002
upperneck  9.184370041 -21.36910248 11.19239998
head  5.893700123 -10.15410042 3.22694993
lclavicle  0 -4.497500157e-015 -2.743230041e-014
lhumerus  -47.80250168 30.3519001 60.53699875
lradius  0.01923420094 -6.507048965e-006 28.96820068
lwrist  4.824992743e-007 -3.790274832e-007 -30.94239998
lhand  -4.41163801e-031 -36.83060074 -10.43150043
lfingers  90 7.125020027 -90
lthumb  94.73217371 -25.27425092 100.9727588
rclavicle  0 -4.497500157e-015 -2.743230041e-014
rhumerus  19.37119675 -44.67169571 -25.42909622
rradius  -5.16745672e-007 2.214343908e-008 55.5544014
rwrist  -2.867388866e-005 0.02215047367 -170.6959991
rhand  -1.769033692e-031 3.589869976 -6.454050064
rfingers  -90 -7.125020027 -90
rthumb  -84.71902335 -9.418458689 -60.54056275
rfemur  -13.00254917 14.75061512 11.80672073
rtibia  -1.577206731 -2.084731102 20.8611145
rfoot  0.3949722052 -22.73731804 -34.98678589
rtoes  3.774924895 19.65485963 -101.0984333
lfemur  -6.738844395 -17.75896835 -22.66726303
ltibia  5.110334396 -1.372475386 11.33522892
lfoot  1.281391382 -21.3609848 37.43136215
ltoes  -8.648619581 -18.10278367 -116.0825151
247
root  34.77267168 36.52139799 -14.52033726 9.7153759 -4.718898296 4.738986969
lowerback  -7.938129902 -0.2724339664 -1.13580966
upperback  -3.995609999 0.3260129988 -4.928269863
thorax  0.3411389887 0.3707570136 -4.439280033
lowerneck  -5.245619774 -15.59440041 -9.995149612
upperneck  9.226759911 -21.32009888 11.18280029
head  5.910900116 -10.12530041 3.218820095
lclavicle  0 -4.497500157e-015 -2.743230041e-014
lhumerus  -47.8512001 30.43650055 60.52659988
lradius  0.02058011107 -6.507048965e-006 28.98260117
lwrist  4.824992743e-007 -3.790274832e-007 -30.94920158
lhand  -4.41239938e-031 -36.84379959 -10.32059956
lfingers  90 7.125020027 -90
lthumb  94.71496133 -25.16491572 100.9769476
rclavicle  0 -4.497500157e-015 -2.743230041e-014
rhumerus  18.52779579 -44.60229874 -25.21569633
rradius  -5.16745672e-007 2.214343908e-008 56.64789963
rwrist  -2.867388866e-005 0.02168032527 -171.1380005
rhand  -0 3.52218008 -6.354489803
rfingers  -90 -7.125020027 -90
rthumb  -84.68567188 -9.501512572 -60.59862786
rfemur  -12.97468853 14.71852207 11.83246231
rtibia  -1.557345629 -2.090895414 20.83711433
rfoot  0.4150252044 -22.78997612 -34.91701126
rtoes  3.784653718 19.65305997 -101.1273589
lfemur  -6.747022629 -17.76012993 -22.62617493
ltibia  5.079193592 -1.384353518 11.39000797
lfoot  1.280114412 -21.34500313 37.47661972
ltoes  -8.662319993 -18.09640273 -116.1266147
248
root  34.77104968 36.5217314 -14.52282583 9.696598053 -4.761890411 4.707527637
lowerback  -7.947969437 -0.3008839786 -1.202980161
upperback  -3.987210035 0.2930940092 -4.917180061
thorax  0.3529469967 0.3552240133 -4.392129898
lowerneck  -5.313630104 -15.55210018 -9.942660332
upperneck  9.268719673 -21.26399803 11.17840004
head  5.923369884 -10.09220028 3.211800098
lclavicle  0 -4.497500157e-015 -2.743230041e-014
lhumerus  -47.90990067 30.53830147 60.45920181
lradius  0.02158089168 -6.507048965e-006 29.00209999
lwrist  4.824992743e-007 -3.790274832e-007 -31.0033989
lhand  -4.415294033e-031 -36.89390182 -10.32139969
lfingers  90 7.125020027 -90
lthumb  94.73826947 -25.16407413 101.0304618
rclavicle  0 -4.497500157e-015 -2.743230041e-014
rhumerus  17.71859741 -44.53820038 -25.03969955
rradius  -5.16745672e-007 2.214343908e-008 57.73600006
rwrist  -2.867388866e-005 0.02121284977 -171.6759949
rhand  -1.768815779e-031 3.475539923 -6.282149792
rfingers  -90 -7.125020027 -90
rthumb  -84.66092541 -9.562019113 -60.63822645
rfemur  -12.97265053 14.76101208 11.85686588
rtibia  -1.539520979 -2.061010838 20.84360504
rfoot  0.4158108532 -22.77810669 -34.91348267
rtoes  3.790391064 19.6519964 -101.1444184
lfemur  -6.710734367 -17.7314167 -22.60725403
ltibia  5.08130455 -1.374422669 11.36781979
lfoot  1.256557584 -21.33727646 37.47756577
ltoes  -8.672849986 -18.0914898 -116.1605194
249
root  34.7674933 36.52285178 -14.52602927 9.678127289 -4.801299572 4.67604351
lowerback  -7.970540047 -0.3057129979 -1.238450289
upperback  -3.981529951 0.2903839946 -4.913149834
thorax  0.3710980117 0.3545309901 -4.367949963
lowerneck  -5.350739956 -15.52569962 -9.902029991
upperneck  9.287949562 -21.22850037 11.17169952
head  5.926780224 -10.07180023 3.206049919
lclavicle  0 -4.497500157e-015 -2.743230041e-014
lhumerus  -47.9396019 30.51210022 60.48870087
lradius  0.02246552333 -6.507048965e-006 29.03219986
lwrist  4.824992743e-007 -3.790274832e-007 -30.95599937
lhand  -4.413606046e-031 -36.86470032 -10.41149998
lfingers  90 7.125020027 -90
lthumb  94.74379234 -25.25346837 101.0074144
rclavicle  0 -4.497500157e-015 -2.743230041e-014
rhumerus  16.69580078 -44.42230225 -24.73539734
rradius  -5.16745672e-007 2.214343908e-008 59.0033989
rwrist  -2.867388866e-005 0.02074809559 -171.9680023
rhand  -1.768208412e-031 3.134809971 -6.398590088
rfingers  -90 -7.125020027 -90
rthumb  -84.80008274 -9.442018363 -60.98087701
rfemur  -12.96382141 14.77965641 11.89039993
rtibia  -1.520470977 -2.029061317 20.84813309
rfoot  0.426397562 -22.7665596 -34.87939453
rtoes  3.822881902 19.64594168 -101.2410435
lfemur  -6.67018795 -17.73795128 -22.58320808
ltibia  5.086576462 -1.384744406 11.34110546
lfoot  1.238738775 -21.27709961 37.5149231
ltoes  -8.664484546 -18.09539344 -116.1335835
250
root  34.76399099 36.52596361 -14.52926876 9.661436081 -4.831638336 4.645473957
lowerback  -7.976551056 -0.3105659187 -1.281416774
upperback  -3.979500055 0.2817299962 -4.894320011
thorax  0.3758989871 0.350186795 -4.324810028
lowerneck  -5.394519806 -15.50109959 -9.910209656
upperneck  9.335599899 -21.19519806 11.17269993
head  5.946519852 -10.05259991 3.206650019
lclavicle  0 -4.497500157e-015 -2.743230041e-014
lhumerus  -47.97399902 30.48240089 60.5583992
lradius  0.02323998883 -6.507048965e-006 29.05849838
lwrist  4.824992743e-007 -3.790274832e-007 -30.85549927
lhand  -4.417714381e-031 -36.93569946 -10.36779976
lfingers  90 7.125020027 -90
lthumb  94.76738127 -25.20814016 101.0791761
rclavicle  0 -4.497500157e-015 -2.743230041e-014
rhumerus  15.67870045 -44.30569839 -24.37690163
rradius  -5.16745672e-007 2.214343908e-008 60.25830078
rwrist  -2.867388866e-005 0.02028610185 -172.2859955
rhand  -1.76810569e-031 3.073430061 -6.385650158
rfingers  -90 -7.125020027 -90
rthumb  -84.80828483 -9.450046879 -61.03988794
rfemur  -12.95239639 14.83637047 11.93108654
rtibia  -1.508306623 -1.974702597 20.84708786
rfoot  0.4285620153 -22.69416046 -34.91411972
rtoes  3.815900261 19.64724727 -101.2202782
lfemur  -6.641533375 -17.69180489 -22.55029678
ltibia  5.087854385 -1.360528708 11.3217411
lfoot  1.237633228 -21.30185509 37.54356003
ltoes  -8.688315447 -18.08426057 -116.2103316
